<svg width="64" height="65" viewBox="0 0 64 65" fill="none" xmlns="http://www.w3.org/2000/svg">
<rect y="0.5" width="64" height="64" rx="9" fill="#111111"/>
<path fill-rule="evenodd" clip-rule="evenodd" d="M23.4667 13.2999C19.932 13.2999 17.0667 16.1652 17.0667 19.6999C17.0667 23.2345 19.932 26.0999 23.4667 26.0999C27.0013 26.0999 29.8667 23.2345 29.8667 19.6999C29.8667 16.1652 27.0013 13.2999 23.4667 13.2999ZM12.8 21.8332C12.8713 21.8332 12.9418 21.8297 13.0113 21.8229C13.9956 26.6968 18.3026 30.3665 23.4667 30.3665C28.6307 30.3665 32.9377 26.6968 33.922 21.8229C33.9915 21.8297 34.062 21.8332 34.1333 21.8332H57.6C58.778 21.8332 59.7333 20.8781 59.7333 19.6999C59.7333 18.5217 58.778 17.5665 57.6 17.5665H34.1333C34.062 17.5665 33.9915 17.57 33.922 17.5769C32.9377 12.7029 28.6307 9.0332 23.4667 9.0332C18.3026 9.0332 13.9956 12.7029 13.0113 17.5769C12.9418 17.57 12.8713 17.5665 12.8 17.5665H6.4C5.2218 17.5665 4.26666 18.5217 4.26666 19.6999C4.26666 20.8781 5.2218 21.8332 6.4 21.8332H12.8ZM50.9888 47.423C50.0045 52.2968 45.6973 55.9665 40.5333 55.9665C35.3693 55.9665 31.0623 52.2968 30.0779 47.423C30.0084 47.4298 29.938 47.4332 29.8667 47.4332H6.4C5.2218 47.4332 4.26666 46.4779 4.26666 45.2999C4.26666 44.1218 5.2218 43.1665 6.4 43.1665H29.8667C29.938 43.1665 30.0084 43.17 30.0779 43.1768C31.0623 38.303 35.3693 34.6332 40.5333 34.6332C45.6973 34.6332 50.0045 38.303 50.9888 43.1768C51.0583 43.17 51.1287 43.1665 51.2 43.1665H57.6C58.778 43.1665 59.7333 44.1218 59.7333 45.2999C59.7333 46.4779 58.778 47.4332 57.6 47.4332H51.2C51.1287 47.4332 51.0583 47.4298 50.9888 47.423ZM34.1333 45.2999C34.1333 41.7652 36.9987 38.8999 40.5333 38.8999C44.0678 38.8999 46.9333 41.7652 46.9333 45.2999C46.9333 48.8344 44.0678 51.6999 40.5333 51.6999C36.9987 51.6999 34.1333 48.8344 34.1333 45.2999Z" fill="white"/>
</svg>
