<svg width="64" height="65" viewBox="0 0 64 65" fill="none" xmlns="http://www.w3.org/2000/svg">
<path d="M0 50.0595V64.395C0 64.453 0.0470097 64.5 0.105 64.5H63.895C63.953 64.5 64 64.453 64 64.395V0.605C64 0.54701 63.953 0.5 63.895 0.5H46.6505C46.5925 0.5 46.5455 0.54701 46.5455 0.605V17.8495C46.5455 17.9075 46.4984 17.9545 46.4405 17.9545H32.105C32.047 17.9545 32 18.0016 32 18.0595V32.395C32 32.453 31.953 32.5 31.895 32.5H14.6505C14.5925 32.5 14.5455 32.547 14.5455 32.605V49.8495C14.5455 49.9075 14.4984 49.9545 14.4405 49.9545H0.105C0.0470101 49.9545 0 50.0016 0 50.0595Z" fill="#746F6F"/>
</svg>
