<svg width="84" height="84" viewBox="0 0 84 84" fill="none" xmlns="http://www.w3.org/2000/svg">
<rect x="1.5" y="1.5" width="81" height="81" rx="7.5" fill="#111111"/>
<path fill-rule="evenodd" clip-rule="evenodd" d="M26.4687 23.2685C27.0935 22.6436 28.1065 22.6436 28.7314 23.2685L41.5315 36.0685C42.1562 36.6933 42.1562 37.7063 41.5315 38.3312C40.9066 38.956 39.8935 38.956 39.2685 38.3312L29.2 28.2626V56.3998C29.2 57.2833 28.4837 57.9998 27.6 57.9998C26.7164 57.9998 26 57.2833 26 56.3998V28.2626L15.9314 38.3312C15.3065 38.956 14.2935 38.956 13.6687 38.3312C13.0438 37.7063 13.0438 36.6933 13.6687 36.0685L26.4687 23.2685Z" fill="white"/>
<path fill-rule="evenodd" clip-rule="evenodd" d="M56.4 22.7998C57.2837 22.7998 58 23.5162 58 24.3998V52.5371L68.0685 42.4684C68.6935 41.8436 69.7066 41.8436 70.3315 42.4684C70.9562 43.0933 70.9562 44.1063 70.3315 44.7312L57.5314 57.5313C57.2313 57.8312 56.8244 57.9998 56.4 57.9998C55.9757 57.9998 55.5687 57.8312 55.2687 57.5313L42.4687 44.7312C41.8438 44.1063 41.8438 43.0933 42.4687 42.4684C43.0935 41.8436 44.1066 41.8436 44.7314 42.4684L54.8 52.5371V24.3998C54.8 23.5162 55.5164 22.7998 56.4 22.7998Z" fill="white"/>
<rect x="1.5" y="1.5" width="81" height="81" rx="7.5" stroke="black" stroke-width="3"/>
</svg>
