<svg width="12" height="13" viewBox="0 0 12 13" fill="none" xmlns="http://www.w3.org/2000/svg">
<path fill-rule="evenodd" clip-rule="evenodd" d="M6 12.5C9.31371 12.5 12 9.81371 12 6.5C12 3.18629 9.31371 0.5 6 0.5C2.68629 0.5 0 3.18629 0 6.5C0 9.81371 2.68629 12.5 6 12.5ZM5.7083 8.56402V9.097H6.3353V8.574C6.53479 8.55041 6.71579 8.50074 6.8783 8.425C7.1143 8.313 7.2973 8.159 7.4273 7.963C7.5593 7.765 7.6253 7.534 7.6253 7.27C7.6253 6.968 7.5443 6.726 7.3823 6.544C7.2203 6.362 6.9573 6.217 6.5933 6.109L5.7983 5.878C5.5783 5.812 5.4173 5.733 5.3153 5.641C5.2133 5.549 5.1623 5.437 5.1623 5.305C5.1623 5.185 5.1983 5.078 5.2703 4.984C5.3443 4.888 5.4433 4.814 5.5673 4.762C5.6933 4.708 5.8353 4.683 5.9933 4.687C6.1613 4.689 6.3123 4.723 6.4463 4.789C6.5823 4.855 6.6943 4.947 6.7823 5.065C6.8723 5.183 6.9313 5.319 6.9593 5.473L7.5983 5.359C7.5423 5.095 7.4413 4.869 7.2953 4.681C7.1513 4.493 6.9693 4.349 6.7493 4.249C6.62218 4.19069 6.48418 4.1487 6.3353 4.12303V3.583H5.7083V4.1112C5.53242 4.13425 5.37242 4.17918 5.2283 4.246C5.0083 4.348 4.8373 4.492 4.7153 4.678C4.5953 4.864 4.5353 5.083 4.5353 5.335C4.5353 5.869 4.8353 6.229 5.4353 6.415L6.4493 6.727C6.6453 6.789 6.7863 6.865 6.8723 6.955C6.9603 7.045 7.0043 7.162 7.0043 7.306C7.0043 7.508 6.9183 7.674 6.7463 7.804C6.5763 7.934 6.3553 7.999 6.0833 7.999C5.8093 7.999 5.5743 7.924 5.3783 7.774C5.1823 7.622 5.0543 7.418 4.9943 7.162L4.3733 7.261C4.4193 7.533 4.5173 7.769 4.6673 7.969C4.8193 8.167 5.0133 8.32 5.2493 8.428C5.39079 8.49275 5.54379 8.53809 5.7083 8.56402Z" fill="#746F6F"/>
</svg>
