<svg width="64" height="65" viewBox="0 0 64 65" fill="none" xmlns="http://www.w3.org/2000/svg">
<path fill-rule="evenodd" clip-rule="evenodd" d="M32 64.5C49.6731 64.5 64 50.1731 64 32.5C64 14.8269 49.6731 0.5 32 0.5C14.3269 0.5 0 14.8269 0 32.5C0 50.1731 14.3269 64.5 32 64.5ZM30.4443 43.5081V46.3507H33.7883V43.5613C34.8522 43.4355 35.8175 43.1706 36.6843 42.7667C37.9429 42.1693 38.9189 41.348 39.6123 40.3027C40.3163 39.2467 40.6683 38.0147 40.6683 36.6067C40.6683 34.996 40.2363 33.7053 39.3723 32.7347C38.5083 31.764 37.1056 30.9907 35.1643 30.4147L30.9243 29.1827C29.7509 28.8307 28.8923 28.4093 28.3483 27.9187C27.8043 27.428 27.5323 26.8307 27.5323 26.1267C27.5323 25.4867 27.7243 24.916 28.1083 24.4147C28.5029 23.9027 29.0309 23.508 29.6923 23.2307C30.3643 22.9427 31.1216 22.8093 31.9643 22.8307C32.8603 22.8413 33.6656 23.0227 34.3803 23.3747C35.1056 23.7267 35.7029 24.2173 36.1723 24.8467C36.6523 25.476 36.9669 26.2013 37.1163 27.0227L40.5243 26.4147C40.2256 25.0067 39.6869 23.8013 38.9083 22.7987C38.1403 21.796 37.1696 21.028 35.9963 20.4947C35.3183 20.1837 34.5823 19.9597 33.7883 19.8228V16.9427H30.4443V19.7597C29.5062 19.8826 28.6529 20.1223 27.8843 20.4787C26.7109 21.0227 25.7989 21.7907 25.1483 22.7827C24.5083 23.7747 24.1883 24.9427 24.1883 26.2867C24.1883 29.1347 25.7883 31.0547 28.9883 32.0467L34.3963 33.7107C35.4416 34.0413 36.1936 34.4467 36.6523 34.9267C37.1216 35.4067 37.3563 36.0307 37.3563 36.7987C37.3563 37.876 36.8976 38.7613 35.9803 39.4547C35.0736 40.148 33.8949 40.4947 32.4443 40.4947C30.9829 40.4947 29.7296 40.0947 28.6843 39.2947C27.6389 38.484 26.9563 37.396 26.6363 36.0307L23.3242 36.5587C23.5696 38.0093 24.0923 39.268 24.8923 40.3347C25.7029 41.3907 26.7376 42.2067 27.9963 42.7827C28.7509 43.128 29.5669 43.3698 30.4443 43.5081Z" fill="#746F6F"/>
</svg>
