<svg xmlns="http://www.w3.org/2000/svg" width="12" height="13" fill="none"><path fill="#746F6F" fill-rule="evenodd" d="M6 12.5a6 6 0 1 0 0-12 6 6 0 0 0 0 12Zm-.292-3.936v.533h.627v-.523c.2-.024.38-.073.543-.149.236-.112.42-.266.55-.462a1.22 1.22 0 0 0 .197-.693c0-.302-.08-.544-.243-.726-.162-.182-.425-.327-.789-.435l-.795-.231c-.22-.066-.38-.145-.483-.237a.436.436 0 0 1-.153-.336c0-.12.036-.227.108-.321a.715.715 0 0 1 .297-.222c.126-.054.268-.079.426-.075.168.002.32.036.453.102a.94.94 0 0 1 .513.684l.64-.114a1.644 1.644 0 0 0-.304-.678 1.413 1.413 0 0 0-.546-.432 1.668 1.668 0 0 0-.414-.126v-.54h-.627v.528a1.642 1.642 0 0 0-.48.135 1.2 1.2 0 0 0-.513.432c-.12.186-.18.405-.18.657 0 .534.3.894.9 1.08l1.014.312c.196.062.337.138.423.228a.48.48 0 0 1 .132.351.599.599 0 0 1-.258.498c-.17.13-.39.195-.663.195-.274 0-.509-.075-.705-.225a1.052 1.052 0 0 1-.384-.612l-.62.099c.045.272.143.508.293.708.152.198.346.351.582.459.142.065.295.11.46.136Z" clip-rule="evenodd"/></svg>