<svg width="64" height="65" viewBox="0 0 64 65" fill="none" xmlns="http://www.w3.org/2000/svg">
<circle cx="32" cy="32.5" r="31.5" fill="#242424" stroke="#2A2A2E"/>
<path fill-rule="evenodd" clip-rule="evenodd" d="M15.9634 31.8634C15.9634 41.402 22.8793 47.8996 30.6453 49.2444C31.534 49.3983 32.1296 50.2434 31.9758 51.1323C31.8219 52.0209 30.9767 52.6165 30.088 52.4627C20.9648 50.8829 12.6973 43.1934 12.6973 31.8634C12.6973 27.0485 14.8878 23.2646 17.446 20.386C19.2785 18.324 21.375 16.6498 23.0611 15.3672H17.9337C17.0685 15.3672 16.3671 14.6658 16.3671 13.8006C16.3671 12.9353 17.0685 12.2339 17.9337 12.2339H27.3337C28.199 12.2339 28.9004 12.9353 28.9004 13.8006V23.2006C28.9004 24.0658 28.199 24.7672 27.3337 24.7672C26.4685 24.7672 25.7671 24.0658 25.7671 23.2006V17.4178L25.7623 17.4213C23.9717 18.7718 21.7831 20.4224 19.8873 22.5557C17.6485 25.0749 15.9634 28.1184 15.9634 31.8634ZM50.7675 33.1369C50.7675 23.6992 43.9982 17.2396 36.332 15.8005C35.4455 15.6341 34.8619 14.7806 35.0283 13.8941C35.1947 13.0077 36.0482 12.424 36.9346 12.5904C45.9406 14.2812 54.0333 21.9285 54.0333 33.1369C54.0333 37.9518 51.8428 41.7357 49.2848 44.6143C47.4521 46.6764 45.3556 48.3505 43.6695 49.6333H48.7972C49.6623 49.6333 50.3639 50.3345 50.3639 51.2C50.3639 52.0651 49.6623 52.7666 48.7972 52.7666H39.3971C38.5318 52.7666 37.8304 52.0651 37.8304 51.2V41.8C37.8304 40.9345 38.5318 40.2332 39.3971 40.2332C40.2623 40.2332 40.9637 40.9345 40.9637 41.8V47.5825L40.9686 47.5788C42.7593 46.2283 44.9476 44.578 46.8433 42.4448C49.0823 39.9255 50.7675 36.882 50.7675 33.1369Z" fill="#F6C628"/>
</svg>
