<svg width="64" height="65" viewBox="0 0 64 65" fill="none" xmlns="http://www.w3.org/2000/svg">
<path fill-rule="evenodd" clip-rule="evenodd" d="M54.842 12.675C55.6749 11.8419 55.6749 10.4912 54.842 9.65807C54.0088 8.82492 52.6579 8.82492 51.8246 9.65807L32 29.4829L12.1751 9.65807C11.342 8.82492 9.9913 8.82492 9.15819 9.65807C8.32504 10.4912 8.32504 11.8419 9.15819 12.675L28.983 32.4999L9.15819 52.3245C8.32504 53.1578 8.32504 54.5086 9.15819 55.3419C9.9913 56.1748 11.342 56.1748 12.1751 55.3419L32 35.5169L51.8246 55.3419C52.6579 56.1748 54.0088 56.1748 54.842 55.3419C55.6749 54.5086 55.6749 53.1578 54.842 52.3245L35.017 32.4999L54.842 12.675Z" fill="white"/>
</svg>
