<svg width="64" height="65" viewBox="0 0 64 65" fill="none" xmlns="http://www.w3.org/2000/svg">
<g clip-path="url(#clip0_1654_15711)">
<path d="M32 64.5C49.6686 64.5 64 50.1686 64 32.5C64 14.8314 49.6686 0.5 32 0.5C14.3314 0.5 0 14.8314 0 32.5C0 50.1686 14.3314 64.5 32 64.5ZM29.7142 14.2143C29.7142 12.9571 30.7428 11.9285 32 11.9285C33.2572 11.9285 34.2858 12.9571 34.2858 14.2143V31.4029L44.8572 39.86C45.8401 40.6486 46 42.0885 45.2114 43.0714C44.7657 43.6314 44.1029 43.9285 43.4285 43.9285C42.9257 43.9285 42.4228 43.7685 42 43.4257L30.5715 34.2829C30.0344 33.8486 29.7144 33.1972 29.7144 32.5V14.2143H29.7142Z" fill="#C4C4C4"/>
</g>
<defs>
<clipPath id="clip0_1654_15711">
<rect width="64" height="64" fill="white" transform="translate(0 0.5)"/>
</clipPath>
</defs>
</svg>
