<svg width="64" height="65" viewBox="0 0 64 65" fill="none" xmlns="http://www.w3.org/2000/svg">
<circle cx="32" cy="32.5" r="31.5" fill="#242424" stroke="#2A2A2E"/>
<path fill-rule="evenodd" clip-rule="evenodd" d="M49.3943 20.0293C50.2019 19.2219 50.2019 17.9129 49.3943 17.1055C48.5871 16.2982 47.278 16.2982 46.4708 17.1055L34 29.5763L21.5293 17.1055C20.7219 16.2982 19.4129 16.2982 18.6055 17.1055C17.7982 17.9129 17.7982 19.2219 18.6055 20.0293L31.0762 32.5L18.6055 44.9707C17.7982 45.7783 17.7982 47.0871 18.6055 47.8946C19.4129 48.7018 20.7219 48.7018 21.5293 47.8946L34 35.4238L46.4708 47.8946C47.278 48.7018 48.5871 48.7018 49.3943 47.8946C50.2019 47.0871 50.2019 45.7783 49.3943 44.9707L36.9238 32.5L49.3943 20.0293Z" fill="#DB6666"/>
</svg>
