<svg width="64" height="65" viewBox="0 0 64 65" fill="none" xmlns="http://www.w3.org/2000/svg">
<g clip-path="url(#clip0_1650_15453)">
<path d="M58.276 8.89062L52.9426 3.55725C52.4218 3.03638 51.578 3.03638 51.0573 3.55725C50.5364 4.07812 50.5364 4.92188 51.0573 5.44263L55.4479 9.83325L51.0573 14.2239C50.8073 14.4739 50.6666 14.8124 50.6666 15.1666V19.1666C50.6666 22.1081 53.0586 24.5 56 24.5V47.1666C56 47.9023 55.4024 48.5 54.6666 48.5C53.931 48.5 53.3333 47.9024 53.3333 47.1666V44.5C53.3333 42.2943 51.539 40.5 49.3333 40.5H48V5.83337C48 2.89188 45.6081 0.5 42.6666 0.5H16C13.0586 0.5 10.6666 2.89188 10.6666 5.83337V53.8334C7.72525 53.8334 5.33325 56.2253 5.33325 59.1668V63.1668C5.33325 63.9038 5.92963 64.5001 6.66663 64.5001H52C52.737 64.5001 53.3334 63.9038 53.3334 63.1668V59.1668C53.3334 56.2254 50.9415 53.8334 48 53.8334V43.1668H49.3334C50.069 43.1668 50.6668 43.7644 50.6668 44.5001V47.1668C50.6668 49.3725 52.461 51.1668 54.6668 51.1668C56.8725 51.1668 58.6668 49.3725 58.6668 47.1668V9.83337C58.6666 9.47913 58.526 9.14062 58.276 8.89062ZM42.6666 23.1914C42.6666 23.9284 42.0703 24.5247 41.3333 24.5247H17.3333C16.5963 24.5247 15.9999 23.9284 15.9999 23.1914V7.16663C15.9999 6.42963 16.5963 5.83325 17.3333 5.83325H41.3333C42.0703 5.83325 42.6666 6.42963 42.6666 7.16663V23.1914Z" fill="#746F6F"/>
</g>
<defs>
<clipPath id="clip0_1650_15453">
<rect width="64" height="64" fill="white" transform="translate(0 0.5)"/>
</clipPath>
</defs>
</svg>
