<svg width="12" height="12" fill="none"><g clip-path="url(#a)"><path fill="#746F6F" d="m10.927 1.573-1-1a.25.25 0 1 0-.354.354l.823.823-.823.823a.25.25 0 0 0-.073.177v.75c0 .552.449 1 1 1v4.25a.25.25 0 0 1-.5 0v-.5a.75.75 0 0 0-.75-.75H9V1c0-.552-.448-1-1-1H3c-.551 0-1 .448-1 1v9c-.552 0-1 .448-1 1v.75c0 .138.112.25.25.25h8.5a.25.25 0 0 0 .25-.25V11c0-.552-.448-1-1-1V8h.25a.25.25 0 0 1 .25.25v.5a.75.75 0 0 0 1.5 0v-7a.25.25 0 0 0-.073-.177ZM8 4.255a.25.25 0 0 1-.25.25h-4.5a.25.25 0 0 1-.25-.25V1.25A.25.25 0 0 1 3.25 1h4.5a.25.25 0 0 1 .25.25v3.005Z"/></g><defs><clipPath id="a"><path fill="#fff" d="M0 0h12v12H0z"/></clipPath></defs></svg>