<svg xmlns="http://www.w3.org/2000/svg" width="14" height="14" fill="none"><g clip-path="url(#a)"><path fill="#746F6F" fill-rule="evenodd" d="M.819 7A6.181 6.181 0 1 1 13.18 7 6.181 6.181 0 0 1 .82 7Zm6.18-5.295a5.295 5.295 0 1 0 0 10.59 5.295 5.295 0 0 0 0-10.59ZM7.7 9.8a.7.7 0 1 1-1.4 0 .7.7 0 0 1 1.4 0ZM5.648 5.833c0-.632.546-1.236 1.353-1.236.807 0 1.353.604 1.353 1.236 0 .459-.252.693-.686.957a9.98 9.98 0 0 1-.164.097c-.171.099-.374.217-.527.336-.226.176-.49.46-.49.897a.513.513 0 0 0 1.027.004v-.001a.413.413 0 0 1 .094-.09c.095-.074.2-.136.341-.217.073-.042.156-.09.252-.149.499-.303 1.18-.804 1.18-1.834C9.38 4.6 8.34 3.57 7 3.57c-1.34 0-2.38 1.03-2.38 2.263a.513.513 0 1 0 1.027 0Z" clip-rule="evenodd"/></g><defs><clipPath id="a"><path fill="#fff" d="M0 0h14v14H0z"/></clipPath></defs></svg>