<svg width="16" height="17" viewBox="0 0 16 17" fill="none" xmlns="http://www.w3.org/2000/svg">
<circle cx="8" cy="8.5" r="7.5" fill="#111111" stroke="#2A2A2E"/>
<path fill-rule="evenodd" clip-rule="evenodd" d="M11.8486 4.88232C12.0505 4.68048 12.0505 4.35323 11.8486 4.15138C11.6468 3.94954 11.3195 3.94954 11.1177 4.15138L8 7.26907L4.88233 4.15138C4.68048 3.94954 4.35322 3.94954 4.15138 4.15138C3.94954 4.35323 3.94954 4.68048 4.15138 4.88232L7.26906 8.00001L4.15138 11.1177C3.94954 11.3196 3.94954 11.6468 4.15138 11.8487C4.35322 12.0504 4.68048 12.0504 4.88233 11.8487L8 8.73095L11.1177 11.8487C11.3195 12.0504 11.6468 12.0504 11.8486 11.8487C12.0505 11.6468 12.0505 11.3196 11.8486 11.1177L8.73094 8.00001L11.8486 4.88232Z" fill="#DB6666"/>
</svg>
