<svg width="16" height="17" viewBox="0 0 16 17" fill="none" xmlns="http://www.w3.org/2000/svg">
<circle cx="8" cy="8.5" r="7.5" fill="#242424" stroke="#2A2A2E"/>
<path fill-rule="evenodd" clip-rule="evenodd" d="M3.79013 8.3586C3.79013 10.4766 5.46322 11.9193 7.34198 12.2179C7.55696 12.2521 7.70107 12.4397 7.66384 12.6371C7.62662 12.8344 7.42216 12.9667 7.20717 12.9325C5.00008 12.5817 3 10.8743 3 8.3586C3 7.28948 3.52994 6.44928 4.14881 5.81013C4.59213 5.35227 5.09932 4.98052 5.50722 4.69573H4.2668C4.05748 4.69573 3.88779 4.53999 3.88779 4.34787C3.88779 4.15575 4.05748 4 4.2668 4H6.54085C6.75016 4 6.91985 4.15575 6.91985 4.34787V6.43507C6.91985 6.62719 6.75016 6.78294 6.54085 6.78294C6.33153 6.78294 6.16184 6.62719 6.16184 6.43507V5.15104L6.16069 5.15184C5.72751 5.4517 5.19805 5.8182 4.73942 6.29187C4.1978 6.85125 3.79013 7.52704 3.79013 8.3586ZM12.2099 8.64137C12.2099 6.54578 10.5723 5.11149 8.7177 4.79193C8.50325 4.75498 8.36205 4.56547 8.40231 4.36864C8.44257 4.17182 8.64904 4.04222 8.86348 4.07917C11.0422 4.45459 13 6.15262 13 8.64137C13 9.71049 12.4701 10.5507 11.8512 11.1898C11.4079 11.6477 10.9007 12.0194 10.4928 12.3043H11.7333C11.9426 12.3043 12.1123 12.46 12.1123 12.6521C12.1123 12.8442 11.9426 13 11.7333 13H9.4592C9.24988 13 9.08019 12.8442 9.08019 12.6521V10.5649C9.08019 10.3728 9.24988 10.217 9.4592 10.217C9.66852 10.217 9.83821 10.3728 9.83821 10.5649V11.8489L9.8394 11.8481C10.2726 11.5482 10.802 11.1818 11.2606 10.7081C11.8023 10.1487 12.2099 9.47293 12.2099 8.64137Z" fill="#F6C628"/>
</svg>
